<svg  xmlns="http://www.w3.org/2000/svg" viewBox="0 0 150 150" width="30px" height="30px">
  <g transform="matrix(1.35,0,0,1.35,10,10.000906372070313)" fill="#fff"><g xmlns="http://www.w3.org/2000/svg"><path d="M30.707,15.899c0,0,0.753-14.887,1.127-15.501c0.001-0.013-13.883-0.501-16.969,0.71c-6.553,2.57-9.758,8.93-9.962,17.627   c-0.205,8.697,0.269,18.252,0.269,18.252C5.368,41.164,1.58,42.427,0,42.198c0.939,0.109-0.058,15.139,0.334,15.392   c0.044,0.694,5.161-0.268,5.113,5.155c-0.028,3.263,0.82,22.386,0.813,25.648c-0.015,6.692,5.409,9.94,9.862,10.908   c4.457,0.968,8.291,1.019,15.274-0.417c0.258-1.081-0.689-15.848-0.689-15.848s-6.025,0.516-6.223,0.545   c-9.438-0.141-1.453-20.435-4.472-29.623c-0.618-1.882-2.529-4.098-2.529-4.098s2.593-0.572,2.593-6.572   c0-3.793-0.861-20.669,1.085-24.024C21.532,15.728,30.707,15.899,30.707,15.899z M16.986,23.947c0,6.946,0.033,14.589-0.031,18.359   c-0.127,7.561-5.24,6.982-5.24,6.982s6.004,1.905,6.004,8.038c0,5.81-0.431,16.59-0.431,23.858c0,8.284,10.746,5.469,10.424,5.26   c0.264-0.324,0.494,8.387,0.447,8.931c-5.103,1.77-15.294,0.968-17.841-7.411c-1.404-4.62-1.726-29.183-1.604-29.655   c-1.213-1.347-4.638-3.476-4.947-4.021l-0.255-8.313c0,0,5.575-1.496,5.775-8.141C9.488,31.19,8.7,12.701,10.207,9.932   c4.208-6.849,13.498-4.808,17.957-5.182c0.035,0.187-0.544,6.076-0.102,6.836C17.124,11.28,16.986,17.384,16.986,23.947z    M100,41.907c-1.58,0.229-5.368-1.033-5.171-5.211c0,0,0.474-9.554,0.269-18.252c-0.204-8.697-3.409-15.057-9.961-17.627   c-3.087-1.21-16.971-0.723-16.971-0.71c0.375,0.614,1.127,15.501,1.127,15.501s9.176-0.172,9.547,3.366   c1.947,3.355,1.086,20.23,1.086,24.024c0,5.999,2.593,6.571,2.593,6.571s-1.911,2.217-2.53,4.098   c-3.019,9.189,4.967,29.483-4.472,29.624c-0.198-0.03-6.224-0.546-6.224-0.546s-0.947,14.767-0.689,15.849   c6.984,1.435,10.818,1.385,15.274,0.416c4.454-0.968,9.878-4.215,9.862-10.908c-0.007-3.263,0.842-22.386,0.813-25.648   c-0.048-5.422,5.068-4.461,5.113-5.154C100.059,57.046,99.062,42.018,100,41.907z M96.231,53.998   c-0.309,0.545-3.733,2.674-4.946,4.021c0.121,0.474-0.199,25.035-1.604,29.655c-2.547,8.379-12.738,9.182-17.842,7.411   c-0.047-0.543,0.184-9.255,0.447-8.931c-0.321,0.209,10.424,3.024,10.424-5.26c0-7.269-0.43-18.048-0.43-23.857   c0-6.134,6.004-8.039,6.004-8.039s-5.113,0.578-5.24-6.981c-0.063-3.771-0.03-11.414-0.03-18.36   c0-6.563-0.138-12.667-11.075-12.361c0.442-0.76-0.137-6.649-0.102-6.835c4.458,0.373,13.748-1.668,17.955,5.182   c1.508,2.769,0.719,21.259,0.919,27.902c0.199,6.645,5.774,8.141,5.774,8.141L96.231,53.998z M61.307,44.64   c0.647-0.109-23.424,0.246-23.239-0.048c0.279,0.037-0.263,23.839,0.237,23.236c0.105,0.458,11.369,0.563,11.638,0.008   c0.041,3.312-0.439,6.972-2.815,9.503c-1.435,1.452-7.652,2.454-7.652,2.454l0.491,5.567c23.173,0.095,21.569-10.834,21.509-17.008   C61.576,67.993,61.34,44.537,61.307,44.64z M48.91,80.577c2.556-2.254,3.656-4.364,4.263-7.867   c0.212-1.223-0.251-8.168-0.251-8.168c-0.107-0.164-11.419-0.135-11.419-0.135c0.138-0.504,0.238-16.228,0.569-16.281   c-0.051-0.084,15.727,0.013,15.528,0.204c0,0-0.027,12.871,0.035,18.162C57.725,74.232,57.878,79.65,48.91,80.577z M61.559,14.349   c-0.453,0.207-23.835,0.103-23.35,0.218c-0.434-0.198-0.063,23.463-0.097,23.414c-0.202,0.022,23.127,0.211,23.893-0.228   C61.521,38.047,61.445,14.853,61.559,14.349z M57.689,34.208c0.004,0.044-15.896-0.126-16.176-0.119   c0.503,0.125,0.366-15.927,0.103-15.907c-0.104,0.068,16.14-0.012,16.301-0.016C58.051,18.224,57.945,34.371,57.689,34.208z"></path></g></g>
</svg>